# xmcd
#
# Track frame offsets:
# 150
# 12256
# 25031
# 39631
# 50163
# 60151
# 75204
# 86349
# 97034
# 107573
#
# Disc length: 1595 seconds
#
#
# Revision: 0
# Processed by: cddbd v1.5.1PL2 Copyright (c) Steve Scherf et al.
# Submitted via: FreeRIP 2.944 
#
DISCID=6806390a
DTITLE=Jim Burns - Country
DYEAR=1900
DGENRE=Country
TTITLE0=Another Night In Georgia
TTITLE1=The King Of Matadors
TTITLE2=The Old Man On The Block
TTITLE3=Leaving The Southland
TTITLE4=Can't Hold Back The Hands Of Time
TTITLE5=Three Times A Fool
TTITLE6=Untamed Love
TTITLE7=Trucker's Heaven
TTITLE8=Ode To The DJ
TTITLE9=Fools Of Love
EXTD=
EXTT0=
EXTT1=
EXTT2=
EXTT3=
EXTT4=
EXTT5=
EXTT6=
EXTT7=
EXTT8=
EXTT9=
PLAYORDER=
